<svg width="15" height="15" viewBox="0 0 15 15" fill="none" xmlns="http://www.w3.org/2000/svg">
    <path d="M8.43491 1.96505C8.20593 1.71791 7.89536 1.57902 7.57149 1.57895H3.19213C2.86823 1.57895 2.55761 1.71778 2.32858 1.96491C2.09955 2.21203 1.97089 2.5472 1.97089 2.89669V7.62211C1.97096 7.97156 2.09967 8.30668 2.32871 8.55375L7.21367 13.8247C7.44268 14.0717 7.75325 14.2105 8.07708 14.2105C8.40091 14.2105 8.71148 14.0717 8.9405 13.8247L13.3199 9.09929C13.5488 8.85218 13.6774 8.51707 13.6774 8.16765C13.6774 7.81823 13.5488 7.48312 13.3199 7.23601L8.43491 1.96505ZM5.02398 6.19104C4.70001 6.19095 4.38934 6.052 4.16031 5.80475C3.93128 5.55751 3.80266 5.22222 3.80275 4.87264C3.80283 4.52307 3.9316 4.18785 4.16074 3.94072C4.38988 3.6936 4.70062 3.55481 5.02459 3.5549C5.34857 3.55499 5.65924 3.69394 5.88827 3.94119C6.11729 4.18844 6.24592 4.52373 6.24583 4.8733C6.24575 5.22287 6.11698 5.5581 5.88784 5.80522C5.65869 6.05234 5.34796 6.19113 5.02398 6.19104Z"
          fill="#05101C"/>
</svg>
